<?xml version="1.0" encoding="UTF-8" standalone="no"?>
<svg
   xmlns:dc="http://purl.org/dc/elements/1.1/"
   xmlns:cc="http://creativecommons.org/ns#"
   xmlns:rdf="http://www.w3.org/1999/02/22-rdf-syntax-ns#"
   xmlns:svg="http://www.w3.org/2000/svg"
   xmlns="http://www.w3.org/2000/svg"
   xmlns:sodipodi="http://sodipodi.sourceforge.net/DTD/sodipodi-0.dtd"
   xmlns:inkscape="http://www.inkscape.org/namespaces/inkscape"
   version="1.1"
   id="Layer_1"
   x="0px"
   y="0px"
   width="430px"
   height="500px"
   viewBox="-184 51 430 500"
   inkscape:version="0.92.2 5c3e80d, 2017-08-06"
   sodipodi:docname="sprites.svg">
  <sodipodi:namedview
     pagecolor="#ffffff"
     bordercolor="#666666"
     borderopacity="1"
     objecttolerance="10"
     gridtolerance="10"
     guidetolerance="10"
     inkscape:pageopacity="0"
     inkscape:pageshadow="2"
     inkscape:window-width="640"
     inkscape:window-height="480"
     id="namedview108"
     showgrid="false"
     inkscape:snap-global="false"
     inkscape:zoom="14.48551"
     inkscape:cx="96.716191"
     inkscape:cy="104.57315"
     inkscape:current-layer="Layer_1" />
  <metadata
     id="metadata143">
    <rdf:RDF>
      <cc:Work
         rdf:about="">
        <dc:format>image/svg+xml</dc:format>
        <dc:type
           rdf:resource="http://purl.org/dc/dcmitype/StillImage" />
      </cc:Work>
    </rdf:RDF>
  </metadata>
  <defs
     id="defs141" />
  <polygon
     points="-183.9,380.3 -170.9,380.3 -177.4,373.3 "
     id="polygon2"
     style="fill:#877f55" />
  <polygon
     points="-183.8,431 -183.8,444 -176.8,437.5 "
     id="polygon4"
     style="fill:#818185" />
  <polygon
     points="-184,535 -184,544 -180,539.5 "
     id="polygon6"
     style="fill:#92a3b3" />
  <polygon
     points="-136.9,518.2 -136.9,531.2 -129.9,524.6 "
     id="polygon8"
     style="fill:#818185" />
  <polygon
     points="-170.4,531.2 -170.4,518.2 -177.4,524.7 "
     id="polygon10"
     style="fill:#818185" />
  <polygon
     points="-150.8,434 -163.8,434 -157.2,441 "
     id="polygon12"
     style="fill:#818185" />
  <polygon
     points="-183.9,399.3 -170.9,399.3 -177.4,392.3 "
     id="polygon14"
     style="fill:#b8b8b8" />
  <rect
     x="-136.8"
     y="418"
     width="2"
     height="2"
     id="rect16"
     style="fill:#9e9e9e" />
  <rect
     x="-133.8"
     y="421"
     width="2"
     height="2"
     id="rect18"
     style="fill:#9e9e9e" />
  <rect
     x="-127.8"
     y="421"
     width="2"
     height="2"
     id="rect20"
     style="fill:#9e9e9e" />
  <rect
     x="-121.8"
     y="421"
     width="2"
     height="2"
     id="rect22"
     style="fill:#9e9e9e" />
  <rect
     x="-115.8"
     y="421"
     width="2"
     height="2"
     id="rect24"
     style="fill:#9e9e9e" />
  <rect
     x="-130.7"
     y="418"
     width="2"
     height="2"
     id="rect26"
     style="fill:#9e9e9e" />
  <rect
     x="-124.7"
     y="418"
     width="2"
     height="2"
     id="rect28"
     style="fill:#9e9e9e" />
  <rect
     x="-118.7"
     y="418"
     width="2"
     height="2"
     id="rect30"
     style="fill:#9e9e9e" />
  <rect
     x="-112.7"
     y="418"
     width="2"
     height="2"
     id="rect32"
     style="fill:#9e9e9e" />
  <g
     id="g38">
    <rect
       x="-123.7"
       y="391"
       width="1.9"
       height="14"
       id="rect34"
       style="fill:#b8b8b8" />
    <rect
       x="-120.9"
       y="392"
       width="10.1"
       height="8"
       id="rect36"
       style="fill:#cccccc" />
  </g>
  <g
     id="g44">
    <rect
       x="-123.7"
       y="371.10001"
       width="1.9"
       height="14"
       id="rect40"
       style="fill:#d35f5f" />
    <rect
       x="-120.9"
       y="372.10001"
       width="10.1"
       height="8"
       id="rect42"
       style="fill:#f89393" />
  </g>
  <g
     id="g50">
    <rect
       x="-103.7"
       y="371.10001"
       width="14"
       height="14"
       id="rect46"
       style="fill:#fe6502" />
    <path
       d="m -100.5,380.5 c -0.8,0 -1.4,0.6 -1.4,1.4 0,0.8 0.6,1.4 1.4,1.4 0.8,0 1.4,-0.6 1.4,-1.4 -0.1,-0.7 -0.6,-1.4 -1.4,-1.4 z m -1.4,-4 v 2 c 1.3,0 2.5,0.5 3.4,1.4 0.9,0.9 1.4,2.1 1.4,3.4 h 2 c 0.1,-3.8 -3.1,-6.8 -6.8,-6.8 z m 0,-3.6 v 2 c 4.6,0 8.4,3.8 8.4,8.4 h 2 c 0,-5.7 -4.7,-10.4 -10.4,-10.4 z"
       id="path48"
       style="fill:#ffffff" />
  </g>
  <g
     id="g58">
    <polygon
       points="-162.2,401.3 -158.9,400.6 -161.3,398.1 "
       id="polygon52"
       style="fill:#7a7a7a" />
    <rect
       x="-159.39999"
       y="394.29999"
       transform="matrix(0.7071,0.7071,-0.7071,0.7071,234.4742,227.7064)"
       width="3.5"
       height="5.0999999"
       id="rect54"
       style="fill:#7a7a7a" />
    <path
       d="m -154.9,392.3 c -0.4,0 -0.8,0.1 -1.1,0.4 l -0.7,0.7 2.5,2.5 0.7,-0.7 c 0.2,-0.3 0.4,-0.7 0.4,-1.1 -0.1,-1 -0.8,-1.8 -1.8,-1.8 z"
       id="path56"
       style="fill:#7a7a7a" />
  </g>
  <g
     id="g64">
    <circle
       cx="-77"
       cy="502.79999"
       r="6.5"
       id="circle60"
       style="fill:#c03433" />
    <path
       d="m -73.8,504.7 v 0 l -1.9,-1.9 1.9,-1.9 v 0 c 0,0 0,0 0,-0.1 0,-0.1 0,-0.2 0,-0.2 l -0.9,-0.9 c -0.1,-0.1 -0.1,-0.1 -0.2,0 H -75 v 0 l -1.9,1.9 -1.9,-1.9 v 0 c 0,0 0,0 -0.1,0 -0.1,0 -0.2,0 -0.2,0 l -0.9,0.9 c -0.1,0.1 -0.1,0.1 0,0.2 v 0.1 0 l 1.9,1.9 -1.9,1.9 v 0 c 0,0 0,0 0,0.1 0,0.1 0,0.2 0,0.2 l 0.9,0.9 c 0.1,0.1 0.1,0.1 0.2,0 h 0.1 v 0 l 1.9,-1.9 1.9,1.9 v 0 c 0,0 0,0 0.1,0 0.1,0 0.2,0 0.2,0 l 0.9,-0.9 c 0,0 0,-0.1 0,-0.3 0,0.1 0,0.1 0,0 z"
       id="path62"
       style="fill:#ffffff" />
  </g>
  <g
     id="g70">
    <circle
       cx="-136.8"
       cy="397.89999"
       r="6.5"
       id="circle66"
       style="fill:#c03433" />
    <path
       d="m -133.7,399.8 v 0 l -1.9,-1.9 1.9,-1.9 v 0 c 0,0 0,0 0,-0.1 0,-0.1 0,-0.2 0,-0.2 l -0.9,-0.9 c -0.1,-0.1 -0.1,-0.1 -0.2,0 h -0.1 v 0 l -1.9,1.9 -1.9,-1.9 v 0 c 0,0 0,0 -0.1,0 -0.1,0 -0.2,0 -0.2,0 l -0.9,0.9 c -0.1,0.1 -0.1,0.1 0,0.2 v 0.1 0 l 1.9,1.9 -1.9,1.9 v 0 c 0,0 0,0 0,0.1 0,0.1 0,0.2 0,0.2 l 0.9,0.9 c 0.1,0.1 0.1,0.1 0.2,0 h 0.1 v 0 l 1.9,-1.9 1.9,1.9 v 0 c 0,0 0,0 0.1,0 0.1,0 0.2,0 0.2,0 l 0.9,-0.9 c 0,-0.1 0,-0.2 0,-0.3 0,0.1 0,0 0,0 z"
       id="path68"
       style="fill:#ffffff" />
  </g>
  <g
     id="g76">
    <circle
       cx="-136.8"
       cy="377.10001"
       r="6.5"
       id="circle72"
       style="fill:#cccccc" />
    <path
       d="m -133.7,379.1 v 0 l -1.9,-1.9 1.9,-1.9 v 0 c 0,0 0,0 0,-0.1 0,-0.1 0,-0.2 0,-0.2 l -0.9,-0.9 c -0.1,-0.1 -0.1,-0.1 -0.2,0 h -0.1 v 0 l -2,1.8 -1.9,-1.9 v 0 c 0,0 0,0 -0.1,0 -0.1,0 -0.2,0 -0.2,0 l -0.9,0.9 c -0.1,0.1 -0.1,0.1 0,0.2 v 0.1 0 l 1.9,1.9 -1.9,1.9 v 0 c 0,0 0,0 0,0.1 0,0.1 0,0.2 0,0.2 l 0.9,0.9 c 0.1,0.1 0.1,0.1 0.2,0 h 0.1 v 0 l 1.9,-1.9 1.9,1.9 v 0 c 0,0 0,0 0.1,0 0.1,0 0.2,0 0.2,0 l 0.9,-0.9 c 0.1,0 0.1,-0.1 0.1,-0.2 z"
       id="path74"
       style="fill:#ffffff" />
  </g>
  <g
     id="g82">
    <path
       d="m -183.8,451 v 31 h 3.4 c 0.3,-5.5 3.7,-10.1 8.3,-11.8 V 469 c -1.8,-1.2 -3,-3.3 -3,-5.6 0,-3.7 3,-6.7 6.8,-6.7 3.8,0 6.8,3 6.8,6.7 0,2.3 -1.2,4.4 -3,5.6 v 1.2 c 4.6,1.7 8,6.3 8.3,11.8 h 3.4 v -31 z"
       id="path78"
       style="fill:#c5c5c5" />
    <path
       d="m -180.3,482 h 24.3 c -0.3,-5.5 -3.7,-10.1 -8.3,-11.8 V 469 c 1.8,-1.2 3,-3.3 3,-5.6 0,-3.7 -3,-6.7 -6.8,-6.7 -3.8,0 -6.8,3 -6.8,6.7 0,2.3 1.2,4.4 3,5.6 v 1.2 c -4.5,1.7 -8,6.3 -8.4,11.8 z"
       id="path80"
       style="fill:#ffffff" />
  </g>
  <path
     d="m -152,289.6 c 0,0 -1.6,-4.4 -1.9,-8.7 L -154,280 h -20.8 l -0.1,0.9 c -0.4,4.3 -1.9,8.7 -1.9,8.7 l -0.2,0.6 0.5,0.5 c 0.1,0.1 7.4,7.3 11.2,21.7 l 1,3.7 1,-3.7 c 3.8,-14.4 11.2,-21.6 11.2,-21.7 l 0.5,-0.5 z m -11.9,17.4 v -17.7 c 1.1,-0.2 2,-1.2 2,-2.4 0,-1.4 -1.1,-2.5 -2.5,-2.5 -1.4,0 -2.5,1.1 -2.5,2.5 0,1.2 0.9,2.2 2,2.4 V 307 c -3.5,-10.1 -8.3,-15.8 -9.9,-17.4 0.4,-1.3 1.4,-4.4 1.8,-7.7 h 17.2 c 0.4,3.3 1.3,6.5 1.8,7.7 -1.6,1.6 -6.4,7.3 -9.9,17.4 z"
     id="path84"
     style="fill:#cac3a2" />
  <path
     d="m -176.8,251.3 c 0,0 1.6,4.4 1.9,8.7 l 0.1,0.9 h 20.8 l 0.1,-0.9 c 0.4,-4.3 1.9,-8.7 1.9,-8.7 l 0.2,-0.6 -0.5,-0.5 c -0.1,-0.1 -7.4,-7.3 -11.2,-21.7 l -1,-3.7 -1,3.7 c -3.8,14.4 -11.2,21.6 -11.2,21.7 l -0.5,0.5 z m 11.9,-17.4 v 17.7 c -1.1,0.2 -2,1.2 -2,2.4 0,1.4 1.1,2.5 2.5,2.5 1.4,0 2.5,-1.1 2.5,-2.5 0,-1.2 -0.9,-2.2 -2,-2.4 v -17.7 c 3.5,10.1 8.3,15.8 9.9,17.4 -0.4,1.3 -1.4,4.4 -1.8,7.7 H -173 c -0.4,-3.3 -1.3,-6.5 -1.8,-7.7 1.6,-1.6 6.4,-7.3 9.9,-17.4 z"
     id="path86"
     style="fill:#cac3a2" />
  <path
     d="m -124,233.9 0.1,17.7 c 1.1,0.2 2,1.2 2,2.4 0,1.4 -1.1,2.5 -2.5,2.5 -1.4,0 -2.5,-1.1 -2.5,-2.5 0,-1.2 0.9,-2.2 2,-2.4 l -0.1,-17.7 c -3.5,10.1 -9.2,15.3 -10.8,16.9 0.4,1.3 2.1,5.8 2.5,9.1 h 17.9 c 0.4,-3.3 1.8,-7.1 2.3,-8.3 -1.6,-1.7 -7.4,-7.6 -10.9,-17.7 z"
     id="path88"
     style="fill:#a59a63" />
  <path
     d="m -112.3,250.3 c -0.1,-0.1 -7.4,-7.3 -11.2,-21.7 l -0.5,-1.8 v 7.1 c 3.5,10.1 8.3,15.8 9.9,17.4 -0.4,1.3 -1.4,4.4 -1.8,7.7 h -17.2 c -0.4,-3.3 -1.3,-6.5 -1.8,-7.7 1.5,-1.6 6.4,-7.3 9.9,-17.4 v -7.1 l -0.5,1.8 c -3.8,14.4 -11.2,21.6 -11.2,21.7 l -0.5,0.5 0.2,0.6 c 0,0 1.6,4.4 1.9,8.7 l 0.1,0.9 h 20.8 l 0.1,-0.9 c 0.4,-4.3 1.9,-8.7 1.9,-8.7 l 0.2,-0.6 z"
     id="path90"
     style="fill:#877f55" />
  <g
     id="g96">
    <path
       d="m -124.9,307 -0.1,-17.7 c -1.1,-0.2 -2,-1.2 -2,-2.4 0,-1.4 1.1,-2.5 2.5,-2.5 1.4,0 2.5,1.1 2.5,2.5 0,1.2 -0.9,2.2 -2,2.4 V 307 c 3.5,-10.1 9.2,-15 10.8,-16.6 -0.4,-1.3 -1.7,-5.9 -2.1,-9.2 h -18.4 c -0.4,3.3 -1.7,7.5 -2.2,8.8 1.7,1.5 7.5,6.9 11,17 z"
       id="path92"
       style="fill:#a59a63" />
    <path
       d="m -136.6,290.6 c 0.1,0.1 7.4,7.3 11.2,21.7 l 0.5,1.8 V 307 c -3.5,-10.1 -8.3,-15.8 -9.9,-17.4 0.4,-1.3 1.4,-4.4 1.8,-7.7 h 17.1 c 0.4,3.3 1.3,6.5 1.8,7.7 -1.5,1.6 -6.4,7.3 -9.9,17.4 v 7.1 l 0.5,-1.8 c 3.8,-14.4 11.2,-21.6 11.2,-21.7 l 0.5,-0.5 -0.2,-0.6 c 0,0 -1.6,-4.4 -1.9,-8.7 l -0.1,-0.9 h -20.9 l -0.1,0.9 c -0.4,4.3 -1.9,8.7 -1.9,8.7 l -0.2,0.6 z"
       id="path94"
       style="fill:#877f55" />
  </g>
  <path
     d="m -137.9,346 c 5.7,3.5 10,8 10,8 h 1 c 0,0 6.5,-9.9 14,-15 v -10 c -9.8,7.5 -15,19 -15,19 0,0 -1.1,-4 -4,-7 -2.9,2.5 -6,5 -6,5 z"
     id="path98"
     style="fill:#2b876d" />
  <path
     d="m -175.9,346 c 5.7,3.5 10,8 10,8 h 1 c 0,0 6.5,-9.9 14,-15 v -10 c -9.8,7.5 -15,19 -15,19 0,0 -1.1,-4 -4,-7 -2.9,2.5 -6,5 -6,5 z"
     id="path100"
     style="fill:#cac3a2" />
  <path
     d="m -161.9,378.8 c 2.3,1.4 4,3.2 4,3.2 h 0.4 c 0,0 2.6,-4 5.6,-6 v -4 c -3.9,3 -6,7.6 -6,7.6 0,0 -0.4,-1.6 -1.6,-2.8 -1.2,1 -2.4,2 -2.4,2 z"
     id="path102"
     style="fill:#2b876d" />
  <g
     id="g108">
    <polygon
       points="-119.9,187.3 -116.8,196.3 -124.7,190.8 -132.2,196.1 -129.2,187.4 -136.7,182 -127.6,181.9 -124.5,173.1 -121.6,181.9 -112.7,181.9 "
       id="polygon104"
       style="fill:#f1d11d" />
    <path
       d="m -114.9,198.9 -9.7,-6.9 -9.5,6.7 3.8,-11 -9.4,-6.8 11.4,-0.1 3.9,-10.9 3.6,10.9 h 11.1 l -9,6.8 z m -9.8,-9.3 5.9,4.2 -2.3,-6.8 5.4,-4.1 h -6.6 l -2.2,-6.7 -2.4,6.7 -6.7,0.1 5.7,4.1 -2.2,6.5 z"
       id="path106"
       style="fill:#b9a43c" />
  </g>
  <path
     d="m -154.9,198.9 -9.7,-6.9 -9.5,6.7 3.8,-11 -9.4,-6.8 11.4,-0.1 3.9,-10.9 3.6,10.9 h 11.1 l -9,6.8 z m -9.7,-9.3 5.9,4.2 -2.3,-6.8 5.4,-4.1 h -6.6 l -2.2,-6.7 -2.4,6.7 -6.7,0.1 5.7,4.1 -2.2,6.5 z"
     id="path110"
     style="fill:#cac3a2" />
  <g
     id="g548"
     transform="translate(-42.185789,10.515294)">
    <path
       d="m -38.892529,445.15054 c -0.902631,0.15778 -2.340946,1.7906 -0.821898,3.24359 1.522693,1.45298 9.44453,0.48065 5.61017,-4.24895 -3.228855,1.73555 -2.120749,0.14679 -4.788272,1.00536 z"
       style="fill:#ffcc00;fill-opacity:1;fill-rule:nonzero;stroke:none;stroke-width:1.33333337"
       id="path499" />
    <path
       d="m -35.63798,443.84799 c 0,-1.26653 -0.821365,-2.29324 -1.834597,-2.29324 -1.013233,0 -1.834596,1.02671 -1.834596,2.29324 0,1.26655 0.821363,2.29326 1.834596,2.29326 1.013232,0 1.834597,-1.02671 1.834597,-2.29326 z"
       style="fill:#ffcc00;fill-opacity:1;fill-rule:nonzero;stroke:none;stroke-width:1.33333337"
       id="path501" />
    <path
       d="m -39.285114,443.95073 c 0.869596,-0.2128 0.495322,0.62012 1.849265,0.37428 -3.034466,1.90794 -2.351977,0.004 -1.849265,-0.37428 z"
       style="fill:#df8020;fill-opacity:1;fill-rule:nonzero;stroke:none;stroke-width:1.33333337"
       id="path503" />
    <path
       d="m -37.455797,443.65825 c 0.08664,-0.23802 0.01903,-0.48115 -0.151013,-0.54304 -0.170038,-0.0619 -0.37811,0.0809 -0.464746,0.31893 -0.08664,0.23803 -0.01903,0.48116 0.151011,0.54304 0.170038,0.0619 0.378111,-0.0809 0.464748,-0.31893 z"
       style="fill:#fffdd9;fill-opacity:1;fill-rule:nonzero;stroke:none;stroke-width:1.33333337"
       id="path505" />
    <path
       d="m -37.549678,443.66311 c 0.04948,-0.13595 0.03448,-0.26622 -0.03351,-0.29097 -0.06799,-0.0247 -0.163225,0.0654 -0.212707,0.20136 -0.04948,0.13595 -0.03448,0.26623 0.03352,0.29098 0.06799,0.0247 0.163223,-0.0654 0.212705,-0.20137 z"
       style="fill:#000000;fill-opacity:1;fill-rule:nonzero;stroke:none;stroke-width:1.33333337"
       id="path507" />
    <path
       d="m -38.527058,443.37571 c 0.07922,-0.21766 0.02212,-0.43827 -0.127555,-0.49275 -0.14967,-0.0545 -0.335224,0.0778 -0.414446,0.29548 -0.07922,0.21766 -0.02212,0.43827 0.127554,0.49275 0.149669,0.0544 0.335223,-0.0778 0.414447,-0.29548 z"
       style="fill:#fffdd9;fill-opacity:1;fill-rule:nonzero;stroke:none;stroke-width:1.33333337"
       id="path509" />
    <path
       d="m -38.608595,443.38512 c 0.04456,-0.12245 0.03656,-0.23777 -0.0179,-0.25758 -0.05445,-0.0199 -0.134717,0.0634 -0.179283,0.18581 -0.04456,0.12245 -0.03656,0.23777 0.01789,0.25758 0.05445,0.0199 0.134719,-0.0634 0.179285,-0.18581 z"
       style="fill:#000000;fill-opacity:1;fill-rule:nonzero;stroke:none;stroke-width:1.33333337"
       id="path511" />
  </g>
  <g
     transform="matrix(1.4308857,0,0,1.4308857,-26.503079,-181.60689)"
     id="g99"
     style="stroke-width:0.69886798">
    <path
       id="path85"
       style="fill:#ffcc00;fill-opacity:1;fill-rule:nonzero;stroke:none;stroke-width:0.93182385"
       d="m -38.892529,445.15054 c -0.902631,0.15778 -2.340946,1.7906 -0.821898,3.24359 1.522693,1.45298 9.44453,0.48065 5.61017,-4.24895 -3.228855,1.73555 -2.120749,0.14679 -4.788272,1.00536 z" />
    <path
       id="path87"
       style="fill:#ffcc00;fill-opacity:1;fill-rule:nonzero;stroke:none;stroke-width:0.93182385"
       d="m -35.63798,443.84799 c 0,-1.26653 -0.821365,-2.29324 -1.834597,-2.29324 -1.013233,0 -1.834596,1.02671 -1.834596,2.29324 0,1.26655 0.821363,2.29326 1.834596,2.29326 1.013232,0 1.834597,-1.02671 1.834597,-2.29326 z" />
    <path
       id="path89"
       style="fill:#df8020;fill-opacity:1;fill-rule:nonzero;stroke:none;stroke-width:0.93182385"
       d="m -39.285114,443.95073 c 0.869596,-0.2128 0.495322,0.62012 1.849265,0.37428 -3.034466,1.90794 -2.351977,0.004 -1.849265,-0.37428 z" />
    <path
       id="path91"
       style="fill:#fffdd9;fill-opacity:1;fill-rule:nonzero;stroke:none;stroke-width:0.93182385"
       d="m -37.455797,443.65825 c 0.08664,-0.23802 0.01903,-0.48115 -0.151013,-0.54304 -0.170038,-0.0619 -0.37811,0.0809 -0.464746,0.31893 -0.08664,0.23803 -0.01903,0.48116 0.151011,0.54304 0.170038,0.0619 0.378111,-0.0809 0.464748,-0.31893 z" />
    <path
       id="path93"
       style="fill:#000000;fill-opacity:1;fill-rule:nonzero;stroke:none;stroke-width:0.93182385"
       d="m -37.549678,443.66311 c 0.04948,-0.13595 0.03448,-0.26622 -0.03351,-0.29097 -0.06799,-0.0247 -0.163225,0.0654 -0.212707,0.20136 -0.04948,0.13595 -0.03448,0.26623 0.03352,0.29098 0.06799,0.0247 0.163223,-0.0654 0.212705,-0.20137 z" />
    <path
       id="path95"
       style="fill:#fffdd9;fill-opacity:1;fill-rule:nonzero;stroke:none;stroke-width:0.93182385"
       d="m -38.527058,443.37571 c 0.07922,-0.21766 0.02212,-0.43827 -0.127555,-0.49275 -0.14967,-0.0545 -0.335224,0.0778 -0.414446,0.29548 -0.07922,0.21766 -0.02212,0.43827 0.127554,0.49275 0.149669,0.0544 0.335223,-0.0778 0.414447,-0.29548 z" />
    <path
       id="path97"
       style="fill:#000000;fill-opacity:1;fill-rule:nonzero;stroke:none;stroke-width:0.93182385"
       d="m -38.608595,443.38512 c 0.04456,-0.12245 0.03656,-0.23777 -0.0179,-0.25758 -0.05445,-0.0199 -0.134717,0.0634 -0.179283,0.18581 -0.04456,0.12245 -0.03656,0.23777 0.01789,0.25758 0.05445,0.0199 0.134719,-0.0634 0.179285,-0.18581 z" />
  </g>
  <g
     id="g867"
     transform="matrix(0.92436486,0,0,0.92436486,-58.424856,50.184239)"
     style="stroke-width:1.08182395">
    <g
       transform="matrix(0.20418663,0,0,-0.20418663,-65.649035,445.08562)"
       style="stroke-width:7.06428146"
       id="g268">
      <path
         d="m -0.70892,5.66927 c 0,1.40895 -2.9189,2.5511 -6.51964,2.5511 -3.60074,0 -6.51964,-1.14215 -6.51964,-2.5511 0,-1.40896 2.9189,-2.55111 6.51964,-2.55111 3.60074,0 6.51964,1.14215 6.51964,2.55111 z"
         style="fill:#604020;fill-opacity:1;fill-rule:nonzero;stroke:none;stroke-width:7.06428146"
         id="path270"
         inkscape:connector-curvature="0" />
    </g>
    <g
       transform="matrix(0.20418663,0,0,-0.20418663,-65.649035,445.08562)"
       style="stroke-width:7.06428146"
       id="g272">
      <path
         d="m 13.7482,5.66927 c 0,1.40895 -2.9189,2.5511 -6.51964,2.5511 -3.60074,0 -6.51964,-1.14215 -6.51964,-2.5511 0,-1.40896 2.9189,-2.55111 6.51964,-2.55111 3.60074,0 6.51964,1.14215 6.51964,2.55111 z"
         style="fill:#604020;fill-opacity:1;fill-rule:nonzero;stroke:none;stroke-width:7.06428146"
         id="path274"
         inkscape:connector-curvature="0" />
    </g>
    <g
       transform="matrix(0.20418663,0,0,-0.20418663,-65.649035,445.08562)"
       style="stroke-width:7.06428146"
       id="g276">
      <path
         d="m 9.77966,57.54398 c 0,2.0353 -1.14215,3.68522 -2.5511,3.68522 -1.40895,0 -2.5511,-1.64992 -2.5511,-3.68522 0,-2.0353 1.14215,-3.68522 2.5511,-3.68522 1.40895,0 2.5511,1.64992 2.5511,3.68522 z"
         style="fill:#604020;fill-opacity:1;fill-rule:nonzero;stroke:none;stroke-width:7.06428146"
         id="path278"
         inkscape:connector-curvature="0" />
    </g>
    <g
       transform="matrix(0.20418663,0,0,-0.20418663,-65.649035,445.08562)"
       style="stroke-width:7.06428146"
       id="g280">
      <path
         d="m -4.67746,57.54398 c 0,2.0353 -1.14215,3.68522 -2.5511,3.68522 -1.40895,0 -2.5511,-1.64992 -2.5511,-3.68522 0,-2.0353 1.14215,-3.68522 2.5511,-3.68522 1.40895,0 2.5511,1.64992 2.5511,3.68522 z"
         style="fill:#604020;fill-opacity:1;fill-rule:nonzero;stroke:none;stroke-width:7.06428146"
         id="path282"
         inkscape:connector-curvature="0" />
    </g>
    <g
       transform="matrix(0.20418663,0,0,-0.20418663,-65.649035,445.08562)"
       style="stroke-width:7.06428146"
       id="g284">
      <path
         d="M 25.08675,18.9923 C 24.52013,11.33855 9.77966,6.80338 9.49635,12.47266 c -0.56705,3.40147 3.11817,1.98405 6.80297,2.5511 3.4019,0.28332 8.78743,5.38597 8.78743,3.96854 z"
         style="fill:#604020;fill-opacity:1;fill-rule:nonzero;stroke:none;stroke-width:7.06428146"
         id="path286"
         inkscape:connector-curvature="0" />
    </g>
    <g
       transform="matrix(0.20418663,0,0,-0.20418663,-65.649035,445.08562)"
       style="stroke-width:7.06428146"
       id="g288">
      <path
         d="M 16.86638,26.079 C 16.86638,7.37 10.06299,5.1022 0,5.1022 -10.06299,5.1022 -16.86638,7.37 -16.86638,26.079 -17.14967,44.788 -9.49635,59.81177 0,59.81177 9.49635,59.81177 17.14967,44.788 16.86638,26.079 Z"
         style="fill:#bf8040;fill-opacity:1;fill-rule:nonzero;stroke:none;stroke-width:7.06428146"
         id="path290"
         inkscape:connector-curvature="0" />
    </g>
    <g
       transform="matrix(0.20418663,0,0,-0.20418663,-65.649035,445.08562)"
       style="stroke-width:7.06428146"
       id="g292">
      <path
         d="m 12.04747,20.1264 c 0,-8.50412 -5.10265,-9.63823 -12.04747,-9.63823 -6.94482,0 -12.04747,1.13411 -12.04747,9.63823 0,8.50371 5.66928,15.59041 12.04747,15.59041 6.37819,0 12.04747,-7.0867 12.04747,-15.59041 z"
         style="fill:#dfbf9f;fill-opacity:1;fill-rule:nonzero;stroke:none;stroke-width:7.06428146"
         id="path294"
         inkscape:connector-curvature="0" />
    </g>
    <g
       transform="matrix(0.20418663,0,0,-0.20418663,-65.649035,445.08562)"
       style="stroke-width:7.06428146"
       id="g296">
      <path
         d="M 13.24028,32.75542 C 11.32771,33.45154 8.7355,31.1536 7.45038,27.62273 6.16525,24.09187 6.67387,20.6653 8.58644,19.9692 c 1.91256,-0.69613 4.50476,1.60181 5.7899,5.13268 1.28513,3.53086 0.77649,6.95743 -1.13606,7.65354 z"
         style="fill:#604020;fill-opacity:1;fill-rule:nonzero;stroke:none;stroke-width:7.06428146"
         id="path298"
         inkscape:connector-curvature="0" />
    </g>
    <g
       transform="matrix(0.20418663,0,0,-0.20418663,-65.649035,445.08562)"
       style="stroke-width:7.06428146"
       id="g300">
      <path
         d="m -8.58644,19.9692 c 1.91257,0.6961 2.42119,4.12267 1.13606,7.65353 -1.28512,3.53087 -3.87733,5.82881 -5.7899,5.13269 -1.91255,-0.69611 -2.42119,-4.12268 -1.13606,-7.65354 1.28514,-3.53087 3.87734,-5.82881 5.7899,-5.13268 z"
         style="fill:#604020;fill-opacity:1;fill-rule:nonzero;stroke:none;stroke-width:7.06428146"
         id="path302"
         inkscape:connector-curvature="0" />
    </g>
    <g
       transform="matrix(0.20418663,0,0,-0.20418663,-65.649035,445.08562)"
       style="stroke-width:7.06428146"
       id="g304">
      <path
         d="m 6.51964,41.66983 c 0,2.03531 -2.9189,3.68523 -6.51964,3.68523 -3.60074,0 -6.51964,-1.64992 -6.51964,-3.68523 0,-2.03529 2.9189,-3.68521 6.51964,-3.68521 3.60074,0 6.51964,1.64992 6.51964,3.68521 z"
         style="fill:#dfbf9f;fill-opacity:1;fill-rule:nonzero;stroke:none;stroke-width:7.06428146"
         id="path306"
         inkscape:connector-curvature="0" />
    </g>
    <g
       transform="matrix(0.20418663,0,0,-0.20418663,-65.649035,445.08562)"
       style="stroke-width:7.06428146"
       id="g308">
      <path
         d="m 2.26778,45.35506 c 0,1.25247 -1.01531,2.26777 -2.26778,2.26777 -1.25247,0 -2.26778,-1.0153 -2.26778,-2.26777 0,-1.25249 1.01531,-2.26779 2.26778,-2.26779 1.25247,0 2.26778,1.0153 2.26778,2.26779 z"
         style="fill:#604020;fill-opacity:1;fill-rule:nonzero;stroke:none;stroke-width:7.06428146"
         id="path310"
         inkscape:connector-curvature="0" />
    </g>
    <g
       transform="matrix(0.20418663,0,0,-0.20418663,-65.649035,445.08562)"
       style="stroke-width:7.06428146"
       id="g312">
      <path
         d="m -2.97629,50.17395 c 0,0.78284 -0.63458,1.41742 -1.4174,1.41742 -0.78284,0 -1.41742,-0.63458 -1.41742,-1.41742 0,-0.78282 0.63458,-1.41742 1.41742,-1.41742 0.78282,0 1.4174,0.6346 1.4174,1.41742 z"
         style="fill:#604020;fill-opacity:1;fill-rule:nonzero;stroke:none;stroke-width:7.06428146"
         id="path314"
         inkscape:connector-curvature="0" />
    </g>
    <g
       transform="matrix(0.20418663,0,0,-0.20418663,-65.649035,445.08562)"
       style="stroke-width:7.06428146"
       id="g316">
      <path
         d="m 5.81111,50.17395 c 0,0.78284 -0.63458,1.41742 -1.41742,1.41742 -0.78282,0 -1.4174,-0.63458 -1.4174,-1.41742 0,-0.78282 0.63458,-1.41742 1.4174,-1.41742 0.78284,0 1.41742,0.6346 1.41742,1.41742 z"
         style="fill:#604020;fill-opacity:1;fill-rule:nonzero;stroke:none;stroke-width:7.06428146"
         id="path318"
         inkscape:connector-curvature="0" />
    </g>
    <g
       transform="matrix(0.20418663,0,0,-0.20418663,-65.649035,445.08562)"
       style="stroke-width:7.06428146"
       id="g320">
      <path
         d="m 4.1104,42.80351 c -0.8567,-2.35386 -3.45949,-3.56749 -5.81334,-2.71078 -1.25965,0.45849 -2.25231,1.45115 -2.7108,2.71078 h 0.44522 v 0 c 0.77102,-2.11839 3.1134,-3.21061 5.23178,-2.43961 1.13362,0.41264 2.02699,1.30599 2.43962,2.43961 z"
         style="fill:#604020;fill-opacity:1;fill-rule:nonzero;stroke:none;stroke-width:7.06428146"
         id="path322"
         inkscape:connector-curvature="0" />
    </g>
  </g>
  <g
     id="g837"
     transform="matrix(0.82807792,0,0,0.82807792,-36.635376,92.73101)"
     style="stroke-width:1.20761585">
    <path
       d="m -72.230746,443.92803 c 0,-0.28769 -0.596001,-0.5209 -1.331224,-0.5209 -0.735223,0 -1.331223,0.23321 -1.331223,0.5209 0,0.28769 0.596,0.5209 1.331223,0.5209 0.735223,0 1.331224,-0.23321 1.331224,-0.5209 z"
       style="fill:#505050;fill-opacity:1;fill-rule:nonzero;stroke:none;stroke-width:1.61015439"
       id="path184"
       inkscape:connector-curvature="0" />
    <path
       d="m -75.182697,443.92803 c 0,-0.28769 -0.596,-0.5209 -1.331223,-0.5209 -0.735223,0 -1.331224,0.23321 -1.331224,0.5209 0,0.28769 0.596001,0.5209 1.331224,0.5209 0.735223,0 1.331223,-0.23321 1.331223,-0.5209 z"
       style="fill:#505050;fill-opacity:1;fill-rule:nonzero;stroke:none;stroke-width:1.61015439"
       id="path188"
       inkscape:connector-curvature="0" />
    <path
       d="m -70.957371,432.9307 c 0,-0.73522 -0.777412,-1.33122 -1.736428,-1.33122 -0.959015,0 -1.736427,0.596 -1.736427,1.33122 0,0.73523 0.777412,1.33123 1.736427,1.33123 0.959016,0 1.736428,-0.596 1.736428,-1.33123 z"
       style="fill:#9f9f9f;fill-opacity:1;fill-rule:nonzero;stroke:none;stroke-width:1.61015439"
       id="path192"
       inkscape:connector-curvature="0" />
    <path
       d="m -71.825632,432.9307 c 0,-0.38358 -0.388686,-0.69453 -0.868167,-0.69453 -0.479481,0 -0.868171,0.31095 -0.868171,0.69453 0,0.38359 0.38869,0.69454 0.868171,0.69454 0.479481,0 0.868167,-0.31095 0.868167,-0.69454 z"
       style="fill:#d9d9d9;fill-opacity:1;fill-rule:nonzero;stroke:none;stroke-width:1.61015439"
       id="path196"
       inkscape:connector-curvature="0" />
    <path
       d="m -75.645664,432.9307 c 0,-0.73522 -0.777412,-1.33122 -1.736427,-1.33122 -0.959016,0 -1.736428,0.596 -1.736428,1.33122 0,0.73523 0.777412,1.33123 1.736428,1.33123 0.959015,0 1.736427,-0.596 1.736427,-1.33123 z"
       style="fill:#9f9f9f;fill-opacity:1;fill-rule:nonzero;stroke:none;stroke-width:1.61015439"
       id="path200"
       inkscape:connector-curvature="0" />
    <path
       d="m -76.51392,432.9307 c 0,-0.38358 -0.38869,-0.69453 -0.868171,-0.69453 -0.479481,0 -0.868167,0.31095 -0.868167,0.69453 0,0.38359 0.388686,0.69454 0.868167,0.69454 0.479481,0 0.868171,-0.31095 0.868171,-0.69454 z"
       style="fill:#d9d9d9;fill-opacity:1;fill-rule:nonzero;stroke:none;stroke-width:1.61015439"
       id="path204"
       inkscape:connector-curvature="0" />
    <path
       d="m -77.824016,437.01321 c -0.390518,-0.14214 -1.079343,0.76537 -1.538545,2.02701 -0.459205,1.26164 -0.514877,2.39959 -0.124357,2.54173 0.390519,0.14214 1.079342,-0.76537 1.538544,-2.02701 0.459205,-1.26163 0.514879,-2.39959 0.124358,-2.54173 z"
       style="fill:#9f9f9f;fill-opacity:1;fill-rule:nonzero;stroke:none;stroke-width:1.61015439"
       id="path208"
       inkscape:connector-curvature="0" />
    <path
       d="m -78.697349,441.56098 c 0.08747,-0.24032 -0.133826,-0.54148 -0.494279,-0.67267 -0.360455,-0.1312 -0.723556,-0.0427 -0.811029,0.19758 -0.08747,0.24031 0.133828,0.54148 0.494283,0.67267 0.36045,0.13119 0.723557,0.0427 0.811025,-0.19758 z"
       style="fill:#505050;fill-opacity:1;fill-rule:nonzero;stroke:none;stroke-width:1.61015439"
       id="path212"
       inkscape:connector-curvature="0" />
    <path
       d="m -70.588972,441.58195 c 0.39052,-0.14214 0.334848,-1.28009 -0.124357,-2.54173 -0.459202,-1.26164 -1.148027,-2.16915 -1.538545,-2.02701 -0.390521,0.14214 -0.334847,1.2801 0.124358,2.54173 0.459202,1.26164 1.148025,2.16915 1.538544,2.02701 z"
       style="fill:#9f9f9f;fill-opacity:1;fill-rule:nonzero;stroke:none;stroke-width:1.61015439"
       id="path216"
       inkscape:connector-curvature="0" />
    <path
       d="m -70.073233,441.08589 c -0.08747,-0.24032 -0.450574,-0.32878 -0.811029,-0.19758 -0.360453,0.13119 -0.581748,0.43235 -0.494279,0.67267 0.08747,0.24031 0.450575,0.32877 0.811025,0.19758 0.360455,-0.13119 0.581751,-0.43236 0.494283,-0.67267 z"
       style="fill:#505050;fill-opacity:1;fill-rule:nonzero;stroke:none;stroke-width:1.61015439"
       id="path220"
       inkscape:connector-curvature="0" />
    <path
       d="m -71.594056,439.76064 c 0,3.82012 -1.389161,4.28318 -3.443889,4.28318 -2.054728,0 -3.443889,-0.46306 -3.443889,-4.28318 -0.05784,-3.82013 1.504861,-6.88778 3.443889,-6.88778 1.939028,0 3.501733,3.06765 3.443889,6.88778 z"
       style="fill:#9f9f9f;fill-opacity:1;fill-rule:nonzero;stroke:none;stroke-width:1.61015439"
       id="path224"
       inkscape:connector-curvature="0" />
    <path
       d="m -72.578013,440.97608 c 0,1.73643 -0.983957,2.54675 -2.459932,2.54675 -1.475975,0 -2.459932,-0.81032 -2.459932,-2.54675 0,-1.73635 0.983957,-2.83609 2.459932,-2.83609 1.302341,0 2.459932,1.09974 2.459932,2.83609 z"
       style="fill:#d9d9d9;fill-opacity:1;fill-rule:nonzero;stroke:none;stroke-width:1.61015439"
       id="path228"
       inkscape:connector-curvature="0" />
    <path
       d="m -71.854508,435.41961 c 0,-1.4385 -1.425253,-2.6046 -3.183437,-2.6046 -1.758184,0 -3.183437,1.1661 -3.183437,2.6046 0,1.43849 1.425253,2.60459 3.183437,2.60459 1.758184,0 3.183437,-1.1661 3.183437,-2.60459 z"
       style="fill:#9f9f9f;fill-opacity:1;fill-rule:nonzero;stroke:none;stroke-width:1.61015439"
       id="path232"
       inkscape:connector-curvature="0" />
    <path
       d="m -75.906728,436.05108 c -0.163834,0.4491 0.390102,0.86879 0.868783,0.86879 0.478681,0 1.032617,-0.41969 0.868783,-0.86879 -0.122142,-0.33684 -0.181758,-0.55799 -0.434699,-0.81094 -0.239613,-0.2396 -0.628555,-0.2396 -0.868168,0 -0.252941,0.25295 -0.312557,0.4741 -0.434699,0.81094 z"
       style="fill:#404040;fill-opacity:1;fill-rule:nonzero;stroke:none;stroke-width:1.61015439"
       id="path236"
       inkscape:connector-curvature="0" />
    <path
       d="m -76.05087,435.0144 c 0,-0.25574 -0.207313,-0.46305 -0.46305,-0.46305 -0.255738,0 -0.463053,0.20731 -0.463053,0.46305 0,0.25574 0.207315,0.46305 0.463053,0.46305 0.255737,0 0.46305,-0.20731 0.46305,-0.46305 z"
       style="fill:#000000;fill-opacity:1;fill-rule:nonzero;stroke:none;stroke-width:1.61015439"
       id="path240"
       inkscape:connector-curvature="0" />
    <path
       d="m -73.098917,435.0144 c 0,-0.25574 -0.207315,-0.46305 -0.463053,-0.46305 -0.255737,0 -0.46305,0.20731 -0.46305,0.46305 0,0.25574 0.207313,0.46305 0.46305,0.46305 0.255738,0 0.463053,-0.20731 0.463053,-0.46305 z"
       style="fill:#000000;fill-opacity:1;fill-rule:nonzero;stroke:none;stroke-width:1.61015439"
       id="path244"
       inkscape:connector-curvature="0" />
    <path
       d="m -76.51392,434.89871 c 0,-0.048 -0.03887,-0.0868 -0.08682,-0.0868 -0.04795,0 -0.08682,0.0389 -0.08682,0.0868 0,0.048 0.03887,0.0868 0.08682,0.0868 0.04795,0 0.08682,-0.0389 0.08682,-0.0868 z"
       style="fill:#ffffff;fill-opacity:1;fill-rule:nonzero;stroke:none;stroke-width:1.61015439"
       id="path248"
       inkscape:connector-curvature="0" />
    <path
       d="m -73.56197,434.89871 c 0,-0.048 -0.03887,-0.0868 -0.08682,-0.0868 -0.04795,0 -0.08682,0.0389 -0.08682,0.0868 0,0.048 0.03887,0.0868 0.08682,0.0868 0.04795,0 0.08682,-0.0389 0.08682,-0.0868 z"
       style="fill:#ffffff;fill-opacity:1;fill-rule:nonzero;stroke:none;stroke-width:1.61015439"
       id="path252"
       inkscape:connector-curvature="0" />
    <g
       id="g815"
       style="fill:#000000;stroke-width:7.88569927"
       transform="matrix(0.20418663,0,0,-0.20418663,-75.096759,445.6379)">
      <path
         inkscape:connector-curvature="0"
         id="path813"
         style="fill:#000000;fill-opacity:1;fill-rule:nonzero;stroke:none;stroke-width:7.88569927"
         d="m 4.1104,42.80351 c -0.8567,-2.35386 -3.45949,-3.56749 -5.81334,-2.71078 -1.25965,0.45849 -2.25231,1.45115 -2.7108,2.71078 h 0.44522 v 0 c 0.77102,-2.11839 3.1134,-3.21061 5.23178,-2.43961 1.13362,0.41264 2.02699,1.30599 2.43962,2.43961 z" />
    </g>
  </g>
</svg>
