<?xml version="1.0" encoding="UTF-8" standalone="no"?>
<svg
   xmlns:dc="http://purl.org/dc/elements/1.1/"
   xmlns:cc="http://creativecommons.org/ns#"
   xmlns:rdf="http://www.w3.org/1999/02/22-rdf-syntax-ns#"
   xmlns:svg="http://www.w3.org/2000/svg"
   xmlns="http://www.w3.org/2000/svg"
   xmlns:sodipodi="http://sodipodi.sourceforge.net/DTD/sodipodi-0.dtd"
   xmlns:inkscape="http://www.inkscape.org/namespaces/inkscape"
   width="189"
   height="530"
   viewBox="0 0 189 530"
   version="1.1"
   id="svg76"
   sodipodi:docname="sprites.svg"
   inkscape:version="0.92.2 5c3e80d, 2017-08-06">
  <metadata
     id="metadata82">
    <rdf:RDF>
      <cc:Work
         rdf:about="">
        <dc:format>image/svg+xml</dc:format>
        <dc:type
           rdf:resource="http://purl.org/dc/dcmitype/StillImage" />
      </cc:Work>
    </rdf:RDF>
  </metadata>
  <defs
     id="defs80" />
  <sodipodi:namedview
     pagecolor="#ffffff"
     bordercolor="#666666"
     borderopacity="1"
     objecttolerance="10"
     gridtolerance="10"
     guidetolerance="10"
     inkscape:pageopacity="0"
     inkscape:pageshadow="2"
     inkscape:window-width="640"
     inkscape:window-height="480"
     id="namedview78"
     showgrid="false"
     inkscape:zoom="1.5358785"
     inkscape:cx="94.5"
     inkscape:cy="260.1168"
     inkscape:current-layer="svg76" />
  <path
     style="fill:#5eba7d"
     inkscape:connector-curvature="0"
     id="path2"
     d="m 48,280.8 v 7.6 L 56.5,296 73,281.2 V 273 L 56.5,287.9 M 22,324 v 3 l 4,4 7,-6 v -4 l -7,6" />
  <path
     style="fill:#c9cbcf"
     inkscape:connector-curvature="0"
     id="path4"
     d="m 8,280.8 v 7.6 L 16.6,296 33,281.2 V 273 l -16.4,14.9" />
  <path
     style="fill:#f48024"
     inkscape:connector-curvature="0"
     id="path6"
     d="M 45,191 H 74 L 59.6,176" />
  <path
     style="fill:#c9cbcf"
     inkscape:connector-curvature="0"
     id="path8"
     d="M 5,191 H 34 L 19.5,176" />
  <path
     style="fill:#f48024"
     inkscape:connector-curvature="0"
     id="path10"
     d="M 59.6,243 74,228 H 45 M 6.5,322.5 0,329 h 13" />
  <path
     style="fill:#c9cbcf"
     inkscape:connector-curvature="0"
     id="path12"
     d="M 7.5,386.5 0,380 v 13 m 55,80.5 -8,-6.5 v 13 M 6.5,473.5 14,480 V 467 M 26.5,389.5 33,383 H 20" />
  <path
     style="fill:#c9cbcf"
     inkscape:connector-curvature="0"
     id="path14"
     d="M 6.5,341.5 0,348 h 13" />
  <path
     style="fill:#c9cbcf"
     inkscape:connector-curvature="0"
     id="path16"
     d="M 19.5,243 34,228 H 5" />
  <path
     style="fill:#c9cbcf"
     inkscape:connector-curvature="0"
     id="path18"
     d="m 19.5,120 2.9,9.2 H 32 l -7.7,5.6 3,9.2 -7.8,-5.7 -7.8,5.7 3,-9.2 -7.7,-5.6 h 9.6" />
  <path
     style="fill:#ffd83d"
     inkscape:connector-curvature="0"
     id="path20"
     d="m 59.6,120 2.9,9.2 h 9.6 l -7.7,5.6 3,9.2 -7.8,-5.7 -7.8,5.7 3,-9.2 -7.7,-5.6 h 9.6" />
  <path
     style="fill:#eac328"
     inkscape:connector-curvature="0"
     id="path22"
     d="m 59.6,123.3 2.2,6.9 H 69 l -5.8,4.2 2.3,6.9 -5.9,-4.3 -5.9,4.3 2.3,-6.9 -5.8,-4.2 h 7.3 z m 0,-3.3 -2.9,9.2 h -9.6 l 7.7,5.6 -3,9.2 7.8,-5.7 7.8,5.7 -3,-9.2 7.7,-5.6 h -9.6 z" />
  <circle
     style="fill:#d1a684"
     id="circle24"
     r="3"
     cy="405"
     cx="65" />
  <circle
     style="fill:#b4b8bc"
     id="circle26"
     r="3"
     cy="405"
     cx="85" />
  <circle
     style="fill:#ff0000"
     id="circle28"
     r="3"
     cy="405"
     cx="105" />
  <path
     style="fill:#93999f"
     inkscape:connector-curvature="0"
     id="path30"
     d="m 47,367 h 2 v 2 h -2 m 3,1 h 2 v 2 h -2 m 6,-2 h 2 v 2 h -2 m 6,-2 h 2 v 2 h -2 m 6,-2 h 2 v 2 h -2 m -15,-5 h 2 v 2 h -2 m 6,-2 h 2 v 2 h -2 m 6,-2 h 2 v 2 h -2 m 6,-2 h 2 v 2 h -2" />
  <path
     style="fill:#c9cbcf"
     inkscape:connector-curvature="0"
     id="path32"
     d="m 0,400 v 31 h 31 v -31" />
  <path
     style="fill:#ffffff"
     inkscape:connector-curvature="0"
     id="path34"
     d="m 20,419 a 14.09,14.09 0 0 1 8,12 H 3 a 14.1,14.1 0 0 1 8,-12 v -0.5 A 7.49,7.49 0 0 1 15.5,405 7.5,7.5 0 0 1 20,418.5 Z" />
  <path
     style="fill:#c9cbcf"
     inkscape:connector-curvature="0"
     id="path36"
     d="m 60,340 h 2 v 14 h -2" />
  <path
     style="fill:#c9cbcf"
     inkscape:connector-curvature="0"
     id="path38"
     d="m 63,341 h 10 v 8 H 63" />
  <path
     style="fill:#dd3c4c"
     inkscape:connector-curvature="0"
     id="path40"
     d="m 60,320 h 2 v 14 h -2" />
  <path
     style="fill:#eec4c8"
     inkscape:connector-curvature="0"
     id="path42"
     d="m 63,321 h 10 v 8 H 63" />
  <path
     style="fill:#fe6502"
     inkscape:connector-curvature="0"
     id="path44"
     d="m 80,320 h 14 v 14 H 80" />
  <path
     style="fill:#ffffff"
     inkscape:connector-curvature="0"
     id="path46"
     d="m 84,329 c -1.36,0 -2,0.64 -2,2 0,0.36 0.64,1 2,1 0.36,0 1,-0.64 1,-1 0,-1.36 -0.64,-2 -1,-2 z m -2,-4 v 2 a 5.12,5.12 0 0 1 5,5 h 2 c 0.1,-3.81 -2.99,-6.9 -7,-7 z m 0,-3 v 2 a 7.9,7.9 0 0 1 8,8 h 2 c 0,-5.48 -4.52,-10 -10,-10 z" />
  <path
     style="fill:#6c737a"
     inkscape:connector-curvature="0"
     id="path48"
     d="m 22.6,347.1 -0.7,3.2 3.2,-0.7 m -1.67,-3.2 3.6,-3.6 2.48,2.47 -3.6,3.6 m 3.19,-7.57 c -0.4,0 -0.8,0.1 -1.1,0.4 l -0.7,0.7 2.5,2.5 0.7,-0.7 c 0.2,-0.3 0.4,-0.7 0.4,-1.1 0,-1 -0.8,-1.8 -1.8,-1.8 z" />
  <circle
     style="fill:#c91d2e"
     id="circle50"
     r="7"
     cy="452"
     cx="107" />
  <path
     style="fill:#ffffff"
     inkscape:connector-curvature="0"
     id="path52"
     d="m 110.2,453.7 -1.9,-1.9 1.9,-1.9 v -0.3 l -0.9,-0.8 H 109 l -2,2 -1.8,-2 h -0.3 l -0.9,0.8 v 0.3 l 1.9,1.9 -1.9,1.9 v 0.3 l 0.9,0.9 h 0.3 l 1.9,-1.9 1.9,1.9 h 0.3 l 0.9,-0.9" />
  <circle
     style="fill:#c91d2e"
     id="circle54"
     r="7"
     cy="347"
     cx="47" />
  <path
     style="fill:#ffffff"
     inkscape:connector-curvature="0"
     id="path56"
     d="m 50.2,348.7 -1.9,-1.9 1.9,-1.9 v -0.3 l -0.9,-0.8 H 49 l -2,2 -1.8,-2 h -0.3 l -0.9,0.8 v 0.3 l 1.9,1.9 -1.9,1.9 v 0.3 l 0.9,0.9 h 0.3 l 1.9,-1.9 1.9,1.9 h 0.3 l 0.9,-0.9" />
  <circle
     style="fill:#c9cbcf"
     id="circle58"
     r="7"
     cy="326"
     cx="47" />
  <path
     style="fill:#222426"
     inkscape:connector-curvature="0"
     id="path60"
     d="m 33.9,518.6 -1.7,-0.2 c -1.3,-0.1 -1.9,-0.6 -1.9,-1.6 0,-1.1 0.8,-1.8 2.4,-1.8 1.1,0 2.1,0.3 2.8,0.8 l 1,-1 c -1,-0.8 -2.3,-1.1 -3.8,-1.1 -2.3,0 -3.9,1.2 -3.9,3.1 0,1.8 1.1,2.7 3.2,2.9 l 1.8,0.2 c 1.2,0.1 1.8,0.6 1.8,1.6 0,1.3 -1.1,1.9 -2.8,1.9 -1.3,0 -2.5,-0.3 -3.3,-1.2 l -1,1 c 1.2,1.1 2.6,1.5 4.4,1.5 2.6,0 4.3,-1.2 4.3,-3.2 -0.2,-2 -1.5,-2.7 -3.3,-2.9 z m 13.3,-4.8 c -1.7,0 -2.8,0.3 -3.7,1.5 l 1,1 c 0.6,-0.9 1.3,-1.2 2.7,-1.2 1.9,0 2.7,0.8 2.7,2.3 v 1 h -3.2 c -2.4,0 -3.7,1.2 -3.7,3.1 0,0.8 0.3,1.6 0.8,2.2 0.7,0.7 1.5,1 3,1 1.4,0 2.2,-0.3 3.1,-1.1 v 1 h 1.6 v -7.2 C 51.4,515 50,513.8 47.2,513.8 Z m 2.7,7 c 0,0.9 -0.2,1.5 -0.5,1.8 -0.7,0.6 -1.5,0.7 -2.4,0.7 -1.7,0 -2.4,-0.6 -2.4,-1.8 0,-1.2 0.8,-1.9 2.4,-1.9 h 3 z m 7.6,-5.6 c 1,0 1.6,0.3 2.4,1.2 l 1,-1 c -1.1,-1.2 -2,-1.6 -3.5,-1.6 -2.7,0 -4.7,1.8 -4.7,5.5 0,3.6 2,5.5 4.7,5.5 1.5,0 2.4,-0.4 3.5,-1.6 l -1.1,-1 c -0.8,0.9 -1.4,1.2 -2.4,1.2 -1,0 -1.9,-0.4 -2.5,-1.2 -0.5,-0.7 -0.7,-1.5 -0.7,-2.9 0,-1.3 0.2,-2.2 0.7,-2.9 0.7,-0.8 1.6,-1.2 2.6,-1.2 z m 13.4,-1.3 H 69 l -4.8,4.7 v -9.5 h -1.6 v 15.4 h 1.6 v -3.9 l 1.9,-1.9 3.6,5.8 h 1.9 l -4.4,-6.9 z m 7.3,-0.5 c -1.6,0 -2.7,0.6 -3.4,1.4 -1,1 -1.3,2.3 -1.3,4.3 0,2 0.3,3.3 1.3,4.3 0.7,0.7 1.8,1.4 3.4,1.4 1.6,0 2.8,-0.6 3.4,-1.4 1,-1 1.3,-2.3 1.3,-4.3 0,-2 -0.3,-3.3 -1.3,-4.3 -0.6,-0.8 -1.7,-1.4 -3.4,-1.4 z m 1.3,8.3 c -0.3,0.3 -0.7,0.5 -1.3,0.5 -0.6,0 -1,-0.2 -1.3,-0.5 -0.6,-0.6 -0.6,-1.6 -0.6,-2.7 0,-1.2 0.1,-2.1 0.6,-2.7 0.3,-0.3 0.7,-0.5 1.3,-0.5 0.6,0 1,0.2 1.3,0.5 0.6,0.6 0.6,1.5 0.6,2.7 0.1,1.2 0,2.2 -0.6,2.7 z m 10.8,-8.2 -2.2,6.9 -2.3,-6.9 h -2.9 l 4.1,11.1 h 2.2 l 4.1,-11.1 z m 7.6,-0.1 c -2.9,0 -4.8,2 -4.8,5.7 0,4.5 2.5,5.7 5.1,5.7 2,0 3.1,-0.6 4.2,-1.7 l -1.7,-1.6 c -0.7,0.7 -1.3,1 -2.5,1 -1.6,0 -2.4,-1 -2.4,-2.5 h 6.9 v -1.2 c 0,-3.2 -1.7,-5.4 -4.8,-5.4 z m -2.1,4.6 c 0,-0.5 0.1,-0.8 0.3,-1.2 0.3,-0.7 0.9,-1.2 1.9,-1.2 0.9,0 1.6,0.5 1.9,1.2 0.2,0.4 0.2,0.7 0.3,1.2 z m 11,-3.4 v -1.1 h -2.7 v 11.1 h 2.8 v -6.7 c 0,-1.4 0.9,-2 1.8,-2 0.7,0 1,0.2 1.5,0.7 l 2.1,-2.1 c -0.8,-0.8 -1.5,-1 -2.6,-1 -1.3,-0.1 -2.3,0.4 -2.9,1.1 z m 6.3,-2.3 v 12.3 h 2.8 v -8.8 h 2 v -2.1 h -2 v -1.2 c 0,-0.6 0.3,-1 1,-1 h 1.1 v -2.3 h -1.6 c -2.3,0 -3.3,1.6 -3.3,3.1 z m 16.2,1.1 c -1.6,0 -2.7,0.6 -3.4,1.4 -1,1 -1.3,2.3 -1.3,4.3 0,2 0.3,3.3 1.3,4.3 0.7,0.7 1.8,1.4 3.4,1.4 1.6,0 2.8,-0.6 3.4,-1.4 1,-1 1.3,-2.3 1.3,-4.3 0,-2 -0.3,-3.3 -1.3,-4.3 -0.6,-0.8 -1.8,-1.4 -3.4,-1.4 z m 1.3,8.3 c -0.3,0.3 -0.7,0.5 -1.3,0.5 -0.6,0 -1,-0.2 -1.3,-0.5 -0.6,-0.6 -0.6,-1.6 -0.6,-2.7 0,-1.2 0.1,-2.1 0.6,-2.7 0.3,-0.3 0.7,-0.5 1.3,-0.5 0.6,0 1,0.2 1.3,0.5 0.6,0.6 0.6,1.5 0.6,2.7 0,1.2 0,2.2 -0.6,2.7 z m 16.5,-8.2 -1.8,6.9 -2.3,-6.9 h -2 l -2.3,6.9 -1.8,-6.9 H 134 l 3.4,11.1 h 2.3 l 2.3,-7 2.3,7 h 2.3 l 3.4,-11.1 z m -25.1,7.7 v -12.1 h -2.8 v 12.3 c 0,1.6 1,3.2 3.2,3.2 h 1.6 v -2.3 h -1 c -0.7,0 -1,-0.4 -1,-1.1 z m -80.7,-5.6 1.4,-1.4 h -3 v -3.5 h -1.6 v 11.1 c 0,1.6 0.9,2.9 2.7,2.9 h 1.1 v -1.3 h -0.8 c -1,0 -1.5,-0.6 -1.5,-1.6 v -6.1 h 1.7 z" />
  <path
     style="fill:#bcbbbb"
     inkscape:connector-curvature="0"
     id="path62"
     d="m 21,527 v -8 h 3 v 11 H 0 v -11 h 3 v 8" />
  <path
     style="fill:#f48024"
     inkscape:connector-curvature="0"
     id="path64"
     d="m 5.4,519.1 13.56,1.96 0.17,-2.38 -13.26,-2.55 z m 1.8,-6.8 12,5.6 1.1,-2.4 -12,-5.6 z m 3.4,-5.9 10.2,8.5 1.7,-2 -10.2,-8.5 z m 6.5,-6.2 -2.1,1.6 7.9,10.6 2.1,-1.6 z M 5,525 h 14 v -3 H 5 Z" />
  <path
     style="fill:#ffffff"
     inkscape:connector-curvature="0"
     id="path66"
     d="m 50.2,327.7 -1.9,-1.9 1.9,-1.9 v -0.3 l -0.9,-0.8 H 49 l -2,2 -1.8,-2 h -0.3 l -0.9,0.8 v 0.3 l 1.9,1.9 -1.9,1.9 v 0.3 l 0.9,0.9 h 0.3 l 1.9,-1.9 1.9,1.9 h 0.3 l 0.9,-0.9" />
  <path
     style="fill:#222426"
     inkscape:connector-curvature="0"
     id="path68"
     d="m 41.8,31.4 -2.2,-0.2 c -1.7,-0.1 -2.3,-0.8 -2.3,-2 0,-1.4 1,-2.2 3,-2.2 1.3,-0.1 2.6,0.3 3.6,1.1 l 1.3,-1.3 c -1.4,-1 -3.1,-1.5 -4.8,-1.4 -2.9,0 -4.9,1.5 -4.9,3.9 0,2.2 1.4,3.4 4,3.6 l 2.2,0.2 c 1.6,0.1 2.2,0.8 2.2,2 0,1.6 -1.4,2.4 -3.6,2.4 -1.6,0.1 -3.1,-0.5 -4.2,-1.6 l -1.3,1.3 c 1.5,1.4 3.5,2 5.5,1.9 3.2,0 5.5,-1.5 5.5,-4.1 0,-2.6 -1.6,-3.4 -4,-3.6 z m 16.8,-6.1 c -2.2,0 -3.5,0.4 -4.7,1.9 l 1.3,1.3 c 0.8,-1.1 2.1,-1.7 3.4,-1.5 2.5,0 3.4,1 3.4,2.9 v 1.3 h -4 c -3,0 -4.6,1.5 -4.6,3.9 0,1 0.3,2 1,2.7 0.8,0.9 1.9,1.2 3.8,1.2 1.4,0.1 2.9,-0.4 3.9,-1.4 v 1.3 h 2 V 29.8 C 64,26.9 62.2,25.3 58.6,25.3 Z m 3.4,8.9 c 0.1,0.8 -0.1,1.7 -0.7,2.3 a 4,4 0 0 1 -3,0.9 c -2.1,0 -3.1,-0.7 -3.1,-2.3 0,-1.6 1,-2.4 3,-2.4 H 62 Z m 9.7,-7.1 c 1.2,0 2.4,0.5 3.1,1.5 l 1.3,-1.3 a 5.4,5.4 0 0 0 -4.4,-2 c -3.4,0 -5.9,2.3 -5.9,6.9 0,4.6 2.6,6.9 5.9,6.9 1.7,0.1 3.3,-0.7 4.4,-2 l -1.3,-1.3 c -0.7,1 -1.9,1.5 -3.1,1.5 -1.2,0.1 -2.4,-0.5 -3.1,-1.5 -0.7,-1.1 -1,-2.3 -0.9,-3.6 -0.1,-1.3 0.2,-2.5 0.9,-3.6 0.7,-1 1.9,-1.6 3.1,-1.5 z M 88.5,25.5 H 86.1 L 80,31.4 V 19.5 h -2 v 19.4 h 2 V 34 l 2.4,-2.4 4.5,7.3 h 2.4 l -5.6,-8.6 z m 9.2,-0.7 c -1.6,-0.1 -3.2,0.5 -4.3,1.7 -1.3,1.3 -1.6,2.9 -1.6,5.4 0,2.5 0.3,4.1 1.6,5.4 1.1,1.1 2.7,1.7 4.3,1.7 1.6,0.1 3.2,-0.5 4.3,-1.7 1.3,-1.3 1.6,-2.9 1.6,-5.4 0,-2.5 -0.3,-4.1 -1.6,-5.4 a 5.38,5.38 0 0 0 -4.3,-1.7 z m 1.7,10.5 c -0.9,0.8 -2.3,0.8 -3.2,0 -0.7,-0.7 -0.8,-2 -0.8,-3.4 0,-1.4 0.1,-2.7 0.8,-3.4 0.9,-0.8 2.3,-0.8 3.2,0 0.7,0.7 0.8,1.9 0.8,3.4 0,1.5 -0.1,2.7 -0.8,3.4 z m 13.6,-10.4 -2.8,8.6 -2.8,-8.6 h -3.7 l 5.2,14 h 2.7 l 5.1,-14 z m 9.6,-0.1 c -3.6,0 -6.1,2.6 -6.1,7.1 0,5.7 3.2,7.2 6.5,7.2 2,0.1 4,-0.7 5.3,-2.2 l -2.1,-2.1 c -0.8,0.9 -2,1.4 -3.2,1.3 -1.6,0.1 -3,-1.1 -3.1,-2.7 V 33 h 8.7 v -1.6 c 0.1,-3.8 -2.1,-6.6 -6,-6.6 z m -2.7,5.8 c 0,-0.5 0.1,-1 0.3,-1.5 0.4,-0.9 1.3,-1.4 2.3,-1.4 1,-0.1 1.9,0.5 2.3,1.4 0.2,0.5 0.3,1 0.3,1.5 z m 13.9,-4.3 V 25 h -3.4 v 14 h 3.5 v -8.4 c -0.1,-1.3 0.8,-2.4 2.1,-2.6 h 0.2 c 0.7,0 1.4,0.3 1.8,0.8 l 2.6,-2.6 a 4.1,4.1 0 0 0 -3.3,-1.3 c -1.3,-0.1 -2.6,0.4 -3.5,1.4 z m 7.9,-2.8 v 15.4 h 3.5 v -11 h 2.6 v -2.7 h -2.6 v -1.5 c -0.1,-0.6 0.3,-1.2 0.9,-1.3 h 1.6 v -3 h -2 a 3.9,3.9 0 0 0 -4,3.8 z m 20.4,1.3 c -1.6,-0.1 -3.2,0.5 -4.3,1.7 -1.3,1.3 -1.6,2.9 -1.6,5.4 0,2.5 0.3,4.1 1.6,5.4 1.1,1.1 2.7,1.7 4.3,1.7 1.6,0.1 3.2,-0.5 4.3,-1.7 1.3,-1.3 1.6,-2.9 1.6,-5.4 0,-2.5 -0.3,-4.1 -1.6,-5.4 a 5.38,5.38 0 0 0 -4.3,-1.7 z m 1.7,10.5 c -0.9,0.8 -2.3,0.8 -3.2,0 -0.7,-0.7 -0.8,-2 -0.8,-3.4 0,-1.4 0.1,-2.7 0.8,-3.4 0.9,-0.8 2.3,-0.8 3.2,0 0.7,0.7 0.8,1.9 0.8,3.4 0,1.5 -0.1,2.7 -0.8,3.4 z m 20.7,-10.4 -2.3,8.6 -2.9,-8.6 h -2.5 L 174,33.6 171.7,25 H 168 l 4.3,14 h 2.9 l 2.9,-8.8 2.9,8.8 h 3 l 4.3,-14 z m -31.6,9.8 V 19.5 h -3.5 v 15.4 a 3.8,3.8 0 0 0 3.6,4 h 2.5 v -3 h -1.3 c -0.6,0.1 -1.1,-0.2 -1.3,-0.8 z M 53,25.8 h -3.7 v -4.4 h -2 v 13.9 c 0,2 1.1,3.6 3.4,3.6 h 1.4 v -1.7 h -1 c -1.3,0 -1.8,-0.7 -1.8,-2 v -7.7 h 1.9 z" />
  <path
     style="fill:#bcbbbb"
     inkscape:connector-curvature="0"
     id="path70"
     d="m 26,41 v -9 h 4 V 45 H 0 V 32 h 4 v 9" />
  <path
     style="fill:#f48024"
     inkscape:connector-curvature="0"
     id="path72"
     d="M 23.09,33.99 23.79,31.04 7.68,27.69 7,31 Z M 9.1,23.2 l 15,7 1.4,-3 -15,-7 z M 13.3,15.8 26,26.4 28.1,23.9 15.4,13.3 Z m 8.2,-7.8 -2.7,2 9.9,13.3 2.7,-2 z M 7,38 H 23 V 35 H 7 Z" />
</svg>
